<svg width="372" height="50" viewBox="0 0 372 50" fill="none" xmlns="http://www.w3.org/2000/svg">
<mask id="mask0_8_50" style="mask-type:alpha" maskUnits="userSpaceOnUse" x="0" y="3" width="44" height="44">
<rect x="0.198364" y="3.19836" width="43.6033" height="43.6033" fill="#D9D9D9"/>
</mask>
<g mask="url(#mask0_8_50)">
<path d="M12.5526 26.8168L22 32.2672L31.4474 26.8168L23.8168 22.4111V28.6336H20.1832V22.4111L12.5526 26.8168ZM20.1832 18.2324V17.4603C18.8509 17.0666 17.7608 16.3172 16.913 15.212C16.0651 14.1068 15.6412 12.8274 15.6412 11.374C15.6412 9.61773 16.2619 8.11887 17.5034 6.87739C18.7449 5.63591 20.2438 5.01517 22 5.01517C23.7562 5.01517 25.2551 5.63591 26.4966 6.87739C27.7381 8.11887 28.3588 9.61773 28.3588 11.374C28.3588 12.8274 27.9349 14.1068 27.087 15.212C26.2392 16.3172 25.1491 17.0666 23.8168 17.4603V18.2324L36.5344 25.545C37.1097 25.8781 37.5564 26.3248 37.8743 26.8849C38.1923 27.4451 38.3512 28.0583 38.3512 28.7244V32.1764C38.3512 32.8425 38.1923 33.4557 37.8743 34.0159C37.5564 34.5761 37.1097 35.0227 36.5344 35.3558L23.8168 42.6684C23.2415 43.0015 22.6359 43.168 22 43.168C21.3641 43.168 20.7585 43.0015 20.1832 42.6684L7.46558 35.3558C6.89026 35.0227 6.44362 34.5761 6.12568 34.0159C5.80774 33.4557 5.64877 32.8425 5.64877 32.1764V28.7244C5.64877 28.0583 5.80774 27.4451 6.12568 26.8849C6.44362 26.3248 6.89026 25.8781 7.46558 25.545L20.1832 18.2324ZM20.1832 35.4012L9.28238 29.1332V32.1764L22 39.5344L34.7176 32.1764V29.1332L23.8168 35.4012C23.2415 35.7343 22.6359 35.9008 22 35.9008C21.3641 35.9008 20.7585 35.7343 20.1832 35.4012ZM22 14.0992C22.757 14.0992 23.4005 13.8342 23.9304 13.3043C24.4603 12.7744 24.7252 12.131 24.7252 11.374C24.7252 10.617 24.4603 9.97353 23.9304 9.44362C23.4005 8.91372 22.757 8.64877 22 8.64877C21.243 8.64877 20.5995 8.91372 20.0696 9.44362C19.5397 9.97353 19.2748 10.617 19.2748 11.374C19.2748 12.131 19.5397 12.7744 20.0696 13.3043C20.5995 13.8342 21.243 14.0992 22 14.0992Z" fill="white"/>
</g>
<path d="M61.1216 41V11.2H65.0416V41H61.1216ZM71.2285 41V19.44H74.8685V23.64L74.2685 23.28C74.8018 21.92 75.6552 20.8667 76.8285 20.12C78.0285 19.3467 79.4285 18.96 81.0285 18.96C82.5752 18.96 83.9485 19.3067 85.1485 20C86.3752 20.6933 87.3352 21.6533 88.0285 22.88C88.7485 24.1067 89.1085 25.4933 89.1085 27.04V41H85.3485V28.24C85.3485 27.04 85.1352 26.0267 84.7085 25.2C84.2818 24.3733 83.6685 23.7333 82.8685 23.28C82.0952 22.8 81.2018 22.56 80.1885 22.56C79.1752 22.56 78.2685 22.8 77.4685 23.28C76.6952 23.7333 76.0818 24.3867 75.6285 25.24C75.1752 26.0667 74.9485 27.0667 74.9485 28.24V41H71.2285ZM104.232 41.48C102.205 41.48 100.378 40.9867 98.7516 40C97.1516 39.0133 95.885 37.6667 94.9516 35.96C94.0183 34.2533 93.5516 32.3467 93.5516 30.24C93.5516 28.08 94.0183 26.16 94.9516 24.48C95.885 22.7733 97.1516 21.4267 98.7516 20.44C100.378 19.4533 102.205 18.96 104.232 18.96C106.018 18.96 107.605 19.3467 108.992 20.12C110.378 20.8667 111.472 21.88 112.272 23.16L111.672 24.08V10.72H115.432V41H111.792V36.4L112.272 37.04C111.525 38.4533 110.432 39.5467 108.992 40.32C107.578 41.0933 105.992 41.48 104.232 41.48ZM104.552 37.88C105.912 37.88 107.125 37.5467 108.192 36.88C109.258 36.2133 110.098 35.3067 110.712 34.16C111.352 32.9867 111.672 31.68 111.672 30.24C111.672 28.7733 111.352 27.4667 110.712 26.32C110.098 25.1467 109.258 24.2267 108.192 23.56C107.125 22.8933 105.912 22.56 104.552 22.56C103.218 22.56 102.005 22.9067 100.912 23.6C99.845 24.2667 99.005 25.1733 98.3916 26.32C97.7783 27.44 97.4716 28.7467 97.4716 30.24C97.4716 31.68 97.7783 32.9867 98.3916 34.16C99.005 35.3067 99.845 36.2133 100.912 36.88C101.978 37.5467 103.192 37.88 104.552 37.88ZM121.189 41V19.44H124.909V41H121.189ZM121.189 16V11.2H124.909V16H121.189ZM130.682 41V10.72H134.402V41H130.682ZM146.494 41.48C145.08 41.48 143.827 41.2267 142.734 40.72C141.667 40.1867 140.827 39.4667 140.214 38.56C139.6 37.6267 139.294 36.56 139.294 35.36C139.294 34.2133 139.534 33.1867 140.014 32.28C140.52 31.3467 141.294 30.56 142.334 29.92C143.4 29.28 144.734 28.8267 146.334 28.56L154.334 27.24V30.36L147.174 31.56C145.787 31.8 144.774 32.24 144.134 32.88C143.52 33.52 143.214 34.3067 143.214 35.24C143.214 36.12 143.56 36.8533 144.254 37.44C144.974 38.0267 145.867 38.32 146.934 38.32C148.294 38.32 149.467 38.04 150.454 37.48C151.467 36.8933 152.254 36.1067 152.814 35.12C153.4 34.1333 153.694 33.04 153.694 31.84V26.36C153.694 25.1867 153.254 24.24 152.374 23.52C151.52 22.7733 150.387 22.4 148.974 22.4C147.747 22.4 146.654 22.72 145.694 23.36C144.76 23.9733 144.067 24.8 143.614 25.84L140.374 24.16C140.774 23.1733 141.414 22.2933 142.294 21.52C143.174 20.72 144.2 20.0933 145.374 19.64C146.547 19.1867 147.774 18.96 149.054 18.96C150.707 18.96 152.16 19.28 153.414 19.92C154.667 20.5333 155.64 21.4 156.334 22.52C157.054 23.6133 157.414 24.8933 157.414 26.36V41H153.774V36.92L154.454 37.16C154 38.0133 153.387 38.76 152.614 39.4C151.84 40.04 150.934 40.5467 149.894 40.92C148.854 41.2933 147.72 41.48 146.494 41.48ZM171.551 41.24C169.444 41.24 167.818 40.64 166.671 39.44C165.551 38.24 164.991 36.5467 164.991 34.36V23H161.071V19.44H161.871C162.831 19.44 163.591 19.1467 164.151 18.56C164.711 17.9733 164.991 17.2 164.991 16.24V14.48H168.711V19.44H173.551V23H168.711V34.24C168.711 34.96 168.818 35.5867 169.031 36.12C169.271 36.6533 169.658 37.08 170.191 37.4C170.724 37.6933 171.431 37.84 172.311 37.84C172.498 37.84 172.724 37.8267 172.991 37.8C173.284 37.7733 173.551 37.7467 173.791 37.72V41C173.444 41.08 173.058 41.1333 172.631 41.16C172.204 41.2133 171.844 41.24 171.551 41.24ZM187.984 41.48C185.904 41.48 184.051 40.9867 182.424 40C180.798 39.0133 179.518 37.6667 178.584 35.96C177.651 34.2267 177.184 32.2933 177.184 30.16C177.184 28 177.638 26.08 178.544 24.4C179.478 22.72 180.731 21.4 182.304 20.44C183.904 19.4533 185.691 18.96 187.664 18.96C189.264 18.96 190.678 19.2533 191.904 19.84C193.158 20.4 194.211 21.1733 195.064 22.16C195.944 23.12 196.611 24.2267 197.064 25.48C197.544 26.7067 197.784 27.9867 197.784 29.32C197.784 29.6133 197.758 29.9467 197.704 30.32C197.678 30.6667 197.638 31 197.584 31.32H179.904V28.12H195.424L193.664 29.56C193.904 28.1733 193.771 26.9333 193.264 25.84C192.758 24.7467 192.011 23.88 191.024 23.24C190.038 22.6 188.918 22.28 187.664 22.28C186.411 22.28 185.264 22.6 184.224 23.24C183.184 23.88 182.371 24.8 181.784 26C181.224 27.1733 180.998 28.5733 181.104 30.2C180.998 31.7733 181.238 33.16 181.824 34.36C182.438 35.5333 183.291 36.4533 184.384 37.12C185.504 37.76 186.718 38.08 188.024 38.08C189.464 38.08 190.678 37.7467 191.664 37.08C192.651 36.4133 193.451 35.56 194.064 34.52L197.184 36.12C196.758 37.1067 196.091 38.0133 195.184 38.84C194.304 39.64 193.251 40.28 192.024 40.76C190.824 41.24 189.478 41.48 187.984 41.48ZM204.155 41V36.2H208.035V41H204.155ZM215.33 41V19.44H219.05V41H215.33ZM215.33 16V11.2H219.05V16H215.33ZM224.822 41V19.44H228.462V23.64L227.862 23.28C228.396 21.92 229.249 20.8667 230.422 20.12C231.622 19.3467 233.022 18.96 234.622 18.96C236.169 18.96 237.542 19.3067 238.742 20C239.969 20.6933 240.929 21.6533 241.622 22.88C242.342 24.1067 242.702 25.4933 242.702 27.04V41H238.942V28.24C238.942 27.04 238.729 26.0267 238.302 25.2C237.876 24.3733 237.262 23.7333 236.462 23.28C235.689 22.8 234.796 22.56 233.782 22.56C232.769 22.56 231.862 22.8 231.062 23.28C230.289 23.7333 229.676 24.3867 229.222 25.24C228.769 26.0667 228.542 27.0667 228.542 28.24V41H224.822ZM258.025 41.48C255.919 41.48 254.039 40.9867 252.385 40C250.759 39.0133 249.479 37.6667 248.545 35.96C247.612 34.2533 247.145 32.3333 247.145 30.2C247.145 28.04 247.612 26.12 248.545 24.44C249.479 22.76 250.759 21.4267 252.385 20.44C254.039 19.4533 255.919 18.96 258.025 18.96C259.439 18.96 260.759 19.2133 261.985 19.72C263.212 20.2267 264.292 20.9067 265.225 21.76C266.159 22.6133 266.839 23.6133 267.265 24.76L263.945 26.36C263.439 25.24 262.665 24.3333 261.625 23.64C260.585 22.92 259.385 22.56 258.025 22.56C256.719 22.56 255.532 22.8933 254.465 23.56C253.425 24.2267 252.599 25.1333 251.985 26.28C251.372 27.4267 251.065 28.7467 251.065 30.24C251.065 31.68 251.372 32.9867 251.985 34.16C252.599 35.3067 253.425 36.2133 254.465 36.88C255.532 37.5467 256.719 37.88 258.025 37.88C259.385 37.88 260.585 37.5333 261.625 36.84C262.665 36.12 263.439 35.1733 263.945 34L267.265 35.68C266.839 36.8 266.159 37.8 265.225 38.68C264.292 39.5333 263.212 40.2133 261.985 40.72C260.759 41.2267 259.439 41.48 258.025 41.48Z" fill="white"/>
</svg>
