<svg width="58" height="58" viewBox="0 0 58 58" fill="none" xmlns="http://www.w3.org/2000/svg">
<mask id="mask0_11_11" style="mask-type:alpha" maskUnits="userSpaceOnUse" x="0" y="0" width="58" height="58">
<rect width="57.9915" height="57.9915" fill="#D9D9D9"/>
</mask>
<g mask="url(#mask0_11_11)">
<path d="M23.3778 33.1035L25.4921 26.217L19.9346 21.7468H26.821L28.9957 14.9811L31.1704 21.7468H38.0569L32.439 26.217L34.5532 33.1035L28.9957 28.8145L23.3778 33.1035ZM14.4979 55.5752V36.9092C12.9675 35.2177 11.7795 33.2847 10.9338 31.11C10.0881 28.9353 9.66524 26.6197 9.66524 24.1631C9.66524 18.7667 11.5379 14.1958 15.2832 10.4506C19.0284 6.70528 23.5993 4.83264 28.9957 4.83264C34.3921 4.83264 38.963 6.70528 42.7083 10.4506C46.4536 14.1958 48.3262 18.7667 48.3262 24.1631C48.3262 26.6197 47.9034 28.9353 47.0576 31.11C46.2119 33.2847 45.0239 35.2177 43.4936 36.9092V55.5752L28.9957 50.7425L14.4979 55.5752ZM28.9957 38.661C33.0229 38.661 36.446 37.2515 39.265 34.4324C42.0841 31.6134 43.4936 28.1903 43.4936 24.1631C43.4936 20.1359 42.0841 16.7128 39.265 13.8938C36.446 11.0748 33.0229 9.66526 28.9957 9.66526C24.9685 9.66526 21.5454 11.0748 18.7264 13.8938C15.9074 16.7128 14.4979 20.1359 14.4979 24.1631C14.4979 28.1903 15.9074 31.6134 18.7264 34.4324C21.5454 37.2515 24.9685 38.661 28.9957 38.661ZM19.3305 48.3866L28.9957 45.9099L38.661 48.3866V40.8961C37.2514 41.7015 35.7312 42.3358 34.1002 42.7989C32.4692 43.262 30.7677 43.4936 28.9957 43.4936C27.2238 43.4936 25.5223 43.262 23.8913 42.7989C22.2603 42.3358 20.74 41.7015 19.3305 40.8961V48.3866Z" fill="#0B0F13"/>
</g>
</svg>
