<svg width="58" height="58" viewBox="0 0 58 58" fill="none" xmlns="http://www.w3.org/2000/svg">
<mask id="mask0_12_86" style="mask-type:alpha" maskUnits="userSpaceOnUse" x="0" y="0" width="58" height="58">
<rect x="0.5" y="0.5" width="56.9915" height="56.9915" fill="#D9D9D9" stroke="black"/>
</mask>
<g mask="url(#mask0_12_86)">
<path d="M53.1588 21.7468C52.4742 21.7468 51.9003 21.5152 51.4372 21.0521C50.9741 20.5889 50.7425 20.0151 50.7425 19.3305V9.66521C50.7425 8.98059 50.9741 8.40672 51.4372 7.94359C51.9003 7.48046 52.4742 7.2489 53.1588 7.2489C53.8435 7.2489 54.4173 7.48046 54.8805 7.94359C55.3436 8.40672 55.5751 8.98059 55.5751 9.66521V19.3305C55.5751 20.0151 55.3436 20.5889 54.8805 21.0521C54.4173 21.5152 53.8435 21.7468 53.1588 21.7468ZM7.24893 50.7425V7.2489H45.9099V50.7425H7.24893ZM12.0816 26.5794H24.1631V24.1631H28.9957V26.5794H41.0773V12.0815H12.0816V26.5794ZM12.0816 45.9099H41.0773V31.412H12.0816V45.9099Z" fill="#0B0F13"/>
</g>
</svg>
