<svg width="58" height="58" viewBox="0 0 58 58" fill="none" xmlns="http://www.w3.org/2000/svg">
<mask id="mask0_12_92" style="mask-type:alpha" maskUnits="userSpaceOnUse" x="0" y="0" width="58" height="58">
<rect width="57.9915" height="57.9915" fill="#D9D9D9"/>
</mask>
<g mask="url(#mask0_12_92)">
<path d="M21.7468 48.3263C20.9816 48.3263 20.297 48.1048 19.6929 47.6618C19.0889 47.2188 18.6459 46.655 18.364 45.9704L12.8065 31.4121H2.41632V26.5795H16.1893L21.7468 41.319L32.8618 12.0212C33.1437 11.3366 33.5867 10.7728 34.1908 10.3298C34.7949 9.88678 35.4795 9.66528 36.2447 9.66528C37.0098 9.66528 37.6945 9.88678 38.2985 10.3298C38.9026 10.7728 39.3456 11.3366 39.6275 12.0212L45.185 26.5795H55.5752V31.4121H41.8022L36.2447 16.6726L25.1296 45.9704C24.8477 46.655 24.4047 47.2188 23.8007 47.6618C23.1966 48.1048 22.512 48.3263 21.7468 48.3263Z" fill="#0B0F13"/>
</g>
</svg>
